<?xml version="1.0" encoding="UTF-8" standalone="no"?>
<svg width="20px" height="25px" viewBox="0 0 20 25" version="1.1" xmlns="http://www.w3.org/2000/svg" xmlns:xlink="http://www.w3.org/1999/xlink">
    <!-- Generator: Sketch 43.2 (39069) - http://www.bohemiancoding.com/sketch -->
    <title>circle</title>
    <desc>Created with Sketch.</desc>
    <defs>
        <path d="M9.98787879,0.221788194 C4.47454545,0.221788194 0,4.70798611 0,10.2356771 C0,14.1853299 5.08969697,20.6250868 8.00181818,23.9859375 C9.07454545,25.2230903 10.9018182,25.2230903 11.9745455,23.9859375 C14.8884848,20.6250868 19.9787879,14.1853299 19.9787879,10.2356771 C19.9787879,4.70798611 15.5066667,0.221788194 9.98787879,0.221788194 Z" id="path-1"></path>
    </defs>
    <g id="Page-1" stroke="none" stroke-width="1" fill="none" fill-rule="evenodd">
        <g id="circle">
            <g id="Path" opacity="0.5">
                <use fill="#000000" fill-rule="evenodd" xlink:href="#path-1"></use>
                <path stroke="#BAD200" stroke-width="1" d="M9.98787879,0.721788194 C15.2289316,0.721788194 19.4787879,4.98253326 19.4787879,10.2356771 C19.4787879,13.3068503 16.233805,18.3101748 11.5967678,23.6583951 C10.7234187,24.6656094 9.25294495,24.6656094 8.37958289,23.6583801 C3.74164354,18.3057795 0.5,13.3064468 0.5,10.2356771 C0.5,4.9838378 4.75097935,0.721788194 9.98787879,0.721788194 Z"></path>
            </g>
            <path d="M11.3932292,10.1174249 L11.3932292,18.5448541 C11.3932292,19.12876 11.2547362,19.5702432 10.9777462,19.8693169 C10.7007562,20.1683907 10.3491972,20.3179253 9.92305871,20.3179253 C9.49692022,20.3179253 9.15068788,20.1648304 8.88435133,19.8586358 C8.61801477,19.5524412 8.48484848,19.1145184 8.48484848,18.5448541 L8.48484848,10.2028741 C8.48484848,9.62608897 8.61801477,9.19172645 8.88435133,8.89977349 C9.15068788,8.60782053 9.49692022,8.46184625 9.92305871,8.46184625 C10.3491972,8.46184625 10.7007562,8.60782053 10.9777462,8.89977349 C11.2547362,9.19172645 11.3932292,9.59760618 11.3932292,10.1174249 Z M9.95501894,7.1053399 C9.55018737,7.1053399 9.20395504,6.9807277 8.91631155,6.73149957 C8.62866807,6.48227143 8.48484848,6.12979693 8.48484848,5.67406548 C8.48484848,5.26105886 8.63221917,4.92104558 8.92696496,4.65401544 C9.22171075,4.38698529 9.56439199,4.25347222 9.95501894,4.25347222 C10.3314413,4.25347222 10.6652448,4.37452407 10.9564394,4.6166314 C11.247634,4.85873873 11.3932292,5.21121323 11.3932292,5.67406548 C11.3932292,6.12267613 11.2511851,6.47337045 10.9670928,6.72615899 C10.6830005,6.97894753 10.3456459,7.1053399 9.95501894,7.1053399 Z" id="i" fill="#BAD200"></path>
        </g>
    </g>
</svg>